<svg xmlns="http://www.w3.org/2000/svg" width="1920" height="1080" viewBox="0 0 1920 1080">
  <defs>
    <style>
      .cls-1 {
        fill: #fff;
        fill-rule: evenodd;
      }
    </style>
  </defs>
  <g id="Artboard_1" data-name="Artboard 1">
    <path id="md" class="cls-1" d="M165.25,280.8l397.4,487.506V767.1L939.3,296.527l6.551-237.1L564.831,542.094,161.975,60.637ZM942.577,457.416L814.842,617.1l-2.183,401.615,129.918,1.21v-562.5ZM1122.71,455V901.373q0,58.065-1.09,117.337h127.19q60.585,0,115.72-1.81t110.27-21.172q55.11-19.335,106.44-58.669a472.506,472.506,0,0,0,91.17-92.542q39.84-53.217,62.77-127.622t21.84-160.284q-2.2-212.9-122.83-332.061-120.645-119.136-325.88-117.945-132.12,1.219-184.51,0V234.833l209.62,2.419q129.9,0,212.89,85.283,82.95,85.284,87.34,229.237Q1638,696.935,1551.22,792.5t-210.16,96.776h-96.07l1.09-1.21-1.09-434.279Z"/>
  </g>
</svg>
