<svg xmlns="http://www.w3.org/2000/svg" width="1920" height="1080" viewBox="0 0 1920 1080">
  <defs>
    <style>
      .cls-1 {
        fill-rule: evenodd;
      }
    </style>
  </defs>
  <g id="Artboard_1" data-name="Artboard 1">
    <path id="md" class="cls-1" d="M271.7,328.935L615.853,726.127v-0.985L942.047,341.748l5.672-193.175L617.744,541.822,268.859,149.558Zm673.188,143.9-110.622,130.1L832.37,930.144l112.513,0.986v-458.3Zm156-1.971V834.542q0,47.308-.94,95.6h110.15q52.47,0,100.22-1.478a336.364,336.364,0,0,0,95.49-17.248q47.73-15.755,92.19-47.8a397.644,397.644,0,0,0,78.95-75.4q34.5-43.358,54.36-103.979t18.91-130.591q-1.9-173.456-106.37-270.543-104.475-97.065-282.23-96.095-114.4.993-159.78,0V291.483l181.53,1.971q112.5,0,184.37,69.484,71.85,69.485,75.64,186.769,3.765,118.27-71.38,196.132-75.165,77.869-182.01,78.847h-83.2l0.94-.986-0.94-353.826Z"/>
  </g>
</svg>
